PathFileType	4	(X/Y/Z)	C:\Users\Basilio\Documents\Thesis Gigler\squatting_fais\c3dfiles\075\SLS_back_pre4\markers_experimental.trc
DataRate	CameraRate	NumFrames	NumMarkers	Units	OrigDataRate	OrigDataStartFrame	OrigNumFrames
200.000000	200.000000	4	61	mm	200.000000	506	1351
Frame#	Time	FHD			LBHD			C7			T10			CLAV			LSHO			LUUPA			LMUPA			LDUPA			LLEP			LMEP			LRAD			LUL			LRFIN			RSHO			RUPA1			RMUPA			RDUPA			RLEP			RMEP			RRAD			RUL			RUFIN			LASI			RASI			USACR			LSACR			RSACR			LTHI1			LTHI2			LTHI3			LTHI4			LLFC			LMFC			LTIB1			LTIB2			LTIB3			LTIB4			LLMAL			LMMAL			LHEE			LMT1			LMT2			LMT5			RTHI			RTHI2			RTHI3			RTHI4			RLFC			RMFC			RTIB1			RTIB2			RTIB3			RTIB4			RLMAL			RMMAL			RHEE			RMT1			RMT2			RMT5			RBHD			
		X1	Y1	Z1	X2	Y2	Z2	X3	Y3	Z3	X4	Y4	Z4	X5	Y5	Z5	X6	Y6	Z6	X7	Y7	Z7	X8	Y8	Z8	X9	Y9	Z9	X10	Y10	Z10	X11	Y11	Z11	X12	Y12	Z12	X13	Y13	Z13	X14	Y14	Z14	X15	Y15	Z15	X16	Y16	Z16	X17	Y17	Z17	X18	Y18	Z18	X19	Y19	Z19	X20	Y20	Z20	X21	Y21	Z21	X22	Y22	Z22	X23	Y23	Z23	X24	Y24	Z24	X25	Y25	Z25	X26	Y26	Z26	X27	Y27	Z27	X28	Y28	Z28	X29	Y29	Z29	X30	Y30	Z30	X31	Y31	Z31	X32	Y32	Z32	X33	Y33	Z33	X34	Y34	Z34	X35	Y35	Z35	X36	Y36	Z36	X37	Y37	Z37	X38	Y38	Z38	X39	Y39	Z39	X40	Y40	Z40	X41	Y41	Z41	X42	Y42	Z42	X43	Y43	Z43	X44	Y44	Z44	X45	Y45	Z45	X46	Y46	Z46	X47	Y47	Z47	X48	Y48	Z48	X49	Y49	Z49	X50	Y50	Z50	X51	Y51	Z51	X52	Y52	Z52	X53	Y53	Z53	X54	Y54	Z54	X55	Y55	Z55	X56	Y56	Z56	X57	Y57	Z57	X58	Y58	Z58	X59	Y59	Z59	X60	Y60	Z60	X61	Y61	Z61	

507	2.53	-152.5393524169922	1510.402221679688	-747.7956542968751	-301.6237487792969	1406.846435546875	-829.5645751953127	-353.6156311035157	1308.241455078125	-779.8464355468752	-471.0044250488282	1013.047424316406	-802.8685302734377	-227.1543273925782	1216.991577148438	-774.3343505859377	-242.2345581054688	1285.713500976563	-902.6319580078127	-101.2385940551758	1204.720825195313	-1005.400329589844	-72.51792144775392	1220.926391601563	-969.2734375000002	-32.89422988891602	1191.832885742188	-1005.149597167969	48.97230148315431	1173.807739257813	-991.0586547851565	23.18560409545899	1100.547119140625	-950.3409423828127	nan	nan	nan	265.5369567871094	1185.889526367188	-847.5665283203127	263.5381774902344	1200.399169921875	-739.0600585937501	-268.0224609375001	1260.833618164063	-638.6709594726564	-153.2545318603516	1170.155639648438	-516.0719604492189	-113.9098281860352	1186.68212890625	-540.4667968750001	-87.16333007812501	1152.294067382813	-498.2905578613282	-16.21160125732422	1141.523071289063	-492.7037963867189	-12.88948822021485	1068.950927734375	-524.0169677734376	187.8685607910157	1174.698608398438	-675.6773071289064	216.2073669433594	1175.287963867188	-605.6210327148439	261.9631652832032	1213.977172851563	-705.4827270507814	-369.9887695312501	810.824401855469	-937.7271728515627	-369.2982177734376	816.4396972656252	-686.8391723632814	-506.2154846191407	910.362243652344	-815.1425781250002	-517.8200683593751	881.4954833984377	-843.5737304687502	-522.5091552734376	882.888610839844	-785.780700683594	-355.5227050781251	609.7636108398439	-1028.175903320313	-297.8630981445313	548.1793823242189	-1032.935668945313	-260.5600280761719	562.6562500000001	-1002.790710449219	-304.7281188964844	487.9192199707032	-1040.371826171875	-288.2857055664063	400.7767333984376	-1041.265014648438	-287.3118591308594	367.4819335937501	-906.883728027344	-365.9976501464844	298.2978210449219	-997.918640136719	-416.1578674316407	339.0981140136719	-1055.302734375	-414.121795654297	302.7846374511719	-1032.226440429688	-493.1604919433595	293.2810058593751	-1004.614074707031	-643.1575927734376	332.1982421875001	-1043.247192382813	-628.8099365234376	327.6580810546876	-955.3826293945315	-671.1574096679689	398.112030029297	-1016.839416503906	-711.0190429687501	214.2698211669922	-925.9963378906252	-711.4367675781251	193.7009887695313	-971.7768554687502	-731.7225952148439	216.9202423095704	-1030.265014648438	-376.1347045898438	648.4469604492189	-624.0722656250001	-311.7903747558594	632.3159790039064	-627.4208984375001	-290.6495666503907	657.1250000000001	-637.3640136718751	-281.2067260742188	554.2994384765626	-635.3693237304689	-210.2196655273438	432.2065734863282	-679.0411987304689	-183.0299835205078	450.3568725585939	-799.6289672851565	-200.3942565917969	302.7913818359376	-771.4410400390627	-272.4665832519532	239.917953491211	-719.4728393554689	-244.0300292968751	226.9777526855469	-757.4938354492189	-277.0668334960938	201.5769195556641	-798.0825805664065	-387.5529785156251	113.5640106201172	-767.3156127929689	-355.5065917968751	141.4758453369141	-848.4790649414065	-447.9133300781251	98.65908813476565	-825.8420410156252	-246.9046936035157	54.40408325195314	-836.7239379882815	-244.9226684570313	56.19966506958009	-794.2177734375002	-282.9304199218751	36.27511978149415	-742.0850830078126	-268.2899169921876	1432.974243164063	-672.8984375000001	
508	2.535	-151.9369812011719	1508.733642578125	-747.6873779296876	-301.0403442382813	1405.38671875	-829.7027587890627	-353.3236083984376	1306.740478515625	-780.1419067382815	-471.2820129394532	1012.100158691406	-803.1103515625002	-226.9823303222657	1215.41796875	-774.6116333007815	-242.0344696044922	1283.7958984375	-902.6326293945315	-101.0572128295899	1203.615112304688	-1005.516906738281	-71.64671325683595	1219.584594726563	-969.230895996094	-32.38079452514649	1190.611572265625	-1005.151184082031	49.18691253662111	1172.454467773438	-990.807800292969	23.72876930236817	1099.365112304688	-950.1106567382815	nan	nan	nan	266.1759338378907	1184.80859375	-847.7102050781252	263.7489318847657	1199.18310546875	-738.9593505859376	-267.5130615234376	1259.363403320313	-638.8855590820314	-152.9295654296875	1169.1005859375	-516.0387573242189	-113.6060028076172	1185.391479492188	-540.6696777343751	-86.90972900390626	1151.161376953125	-498.4652099609376	-15.84686756134034	1140.2138671875	-492.7999267578126	-12.61276149749756	1067.656127929688	-524.1921997070314	187.9564819335938	1173.421020507813	-675.6288452148439	216.4821166992188	1173.766479492188	-605.6755371093751	262.2891235351563	1212.758056640625	-705.5046386718751	-370.1658935546876	809.750427246094	-937.512878417969	-370.0549011230469	815.6813964843752	-686.8547363281251	-506.7352600097657	909.213073730469	-815.3033447265627	-518.4359130859376	880.364685058594	-843.799011230469	-523.2719726562501	881.7722778320315	-785.914733886719	-356.6056823730469	608.9006958007814	-1028.416259765625	-297.8117675781251	547.3732910156251	-1032.754028320313	-260.7306518554688	561.9298095703126	-1002.817810058594	-304.8126220703126	486.9022827148439	-1040.1943359375	-288.6484069824219	399.7140502929689	-1040.908081054688	-287.3949890136719	366.6245117187501	-906.5615844726565	-366.0280151367188	297.1356811523438	-997.620544433594	-416.2448730468751	337.9583740234376	-1055.00537109375	-414.0599975585939	301.6307067871094	-1031.953979492188	-492.9415588378907	291.9267272949219	-1004.051879882813	-642.7901000976564	330.5749206542969	-1042.927856445313	-628.9169311523439	326.4860229492188	-955.2392578125002	-670.9924316406251	396.7562255859376	-1017.025024414063	-711.2962646484376	213.3305053710938	-925.7185668945315	-711.1663818359376	192.4247131347657	-971.0191040039065	-732.0971069335939	215.9544677734376	-1030.130859375	-376.5360717773438	647.6783447265626	-624.1271972656251	-312.2647399902344	631.6198120117189	-627.4697875976564	-291.2855224609376	656.4707641601564	-637.4953613281251	-281.3812255859376	553.8493652343751	-635.4890136718751	-210.0659484863282	431.9433593750001	-679.1741333007814	-183.2249755859375	450.3995361328126	-799.6272583007815	-200.2337036132813	302.6721801757813	-771.664978027344	-272.3223266601563	239.7029113769532	-719.7969360351564	-243.8797912597657	226.9717864990235	-757.8341674804689	-276.8917236328126	201.5141754150391	-798.396423339844	-387.4982299804689	113.5627136230469	-767.4406738281251	-355.5189819335938	141.4046630859375	-848.657165527344	-447.8822021484376	98.65715026855472	-825.9215087890627	-246.9227600097657	54.4144630432129	-836.7166748046877	-244.9188079833985	56.27328491210939	-794.1882324218752	-282.9391479492188	36.31198501586915	-742.0450439453126	-267.7477111816407	1431.4189453125	-673.1149291992189	
509	2.54	-151.3327789306641	1507.2646484375	-747.9017944335939	-300.6803894042969	1403.89599609375	-829.9108886718752	-352.9001464843751	1305.604248046875	-780.3533935546877	-471.7636718750001	1010.956115722656	-803.037780761719	-226.8766174316407	1213.965698242188	-774.8272094726565	-241.8065338134766	1282.546752929688	-902.7234497070315	-100.4022216796875	1202.440307617188	-1005.670715332031	-71.40962982177736	1218.115478515625	-969.1652832031252	-31.80913352966309	1189.463623046875	-1005.170959472656	49.72318267822267	1171.130004882813	-990.8157958984377	23.79892730712891	1098.138549804688	-950.4696044921877	nan	nan	nan	266.5694885253907	1183.609985351563	-847.7928466796877	264.1829528808594	1198.002075195313	-738.9826660156251	-267.2675781250001	1258.32177734375	-639.4153442382814	-152.5959014892578	1167.798217773438	-516.4574584960939	-113.3355102539063	1184.145751953125	-540.8135375976564	-86.60086822509767	1149.93212890625	-498.592010498047	-15.63996505737305	1139.095092773438	-493.0088500976564	-12.43574810028077	1066.36572265625	-523.9668579101564	188.2677001953125	1172.178588867188	-675.7043457031251	216.7125549316407	1172.271728515625	-605.8318481445314	262.6416015625001	1211.5634765625	-705.4271240234376	-370.8121032714844	808.4758300781252	-937.4949340820315	-370.8860778808594	814.5828247070315	-686.6882324218751	-506.867401123047	907.808532714844	-815.5285644531252	-520.9958496093751	879.6800537109377	-843.8226318359377	-524.1525878906251	880.798767089844	-786.0250244140627	-356.8000488281251	607.6976318359376	-1028.27783203125	-297.9345092773438	546.0588378906251	-1032.639038085938	-260.9639282226563	560.9125366210939	-1002.68212890625	-304.9812622070313	485.5839233398439	-1039.907592773438	-288.8056640625001	398.5928955078126	-1040.7060546875	-287.6432495117188	365.5274963378907	-906.294860839844	-365.7245178222657	295.8096313476563	-996.9707031250002	-416.221405029297	336.6670837402344	-1054.715087890625	-414.2210388183595	300.5023193359376	-1031.61962890625	-492.9913940429689	290.7783203125001	-1003.763427734375	-642.7369384765626	329.3843078613282	-1043.239013671875	-629.0298461914064	325.3047485351563	-955.080749511719	-670.7888183593751	395.4855346679689	-1017.093139648438	-712.0142822265626	212.4646453857422	-925.4700317382815	-711.6095581054689	191.3758544921875	-970.6658325195315	-732.2636108398439	214.7213592529297	-1030.016235351563	-377.0566711425782	646.8634643554689	-624.1705932617189	-312.7994079589844	630.8730468750001	-627.6965942382814	-291.7496643066407	655.9267578125001	-637.5662841796876	-281.6361389160157	553.2522583007814	-635.6771850585939	-209.8648986816407	431.661834716797	-679.3806762695314	-183.2771606445313	450.1612548828126	-799.649353027344	-200.2178955078126	302.5741577148438	-771.9514160156252	-272.1076965332032	239.4471282958985	-720.0570678710939	-243.5516662597657	226.5566864013672	-757.8455200195314	-276.7904663085938	201.4349975585938	-798.6768188476565	-387.484832763672	113.5646591186524	-767.5953979492189	-355.6005249023438	141.3580017089844	-848.9053344726565	-447.8679809570314	98.53578948974612	-826.079772949219	-246.9366149902344	54.37899017333986	-836.853942871094	-244.9373931884766	56.26634597778322	-794.251159667969	-282.9233398437501	36.37693786621094	-742.1298217773439	-267.4289245605469	1429.83251953125	-673.4013671875001	
510	2.545	-150.6606140136719	1505.504272460938	-748.0108642578126	-299.8871765136719	1402.733154296875	-830.129821777344	-352.4614868164063	1304.317993164063	-780.618103027344	-472.0914916992189	1009.993957519531	-803.2821044921877	-226.5746307373047	1212.411010742188	-775.0673828125002	-241.5638732910157	1281.104614257813	-902.855651855469	-100.1855926513672	1201.281005859375	-1005.795959472656	-70.99622344970705	1216.998901367188	-969.3354492187502	-31.76783561706544	1188.10986328125	-1004.99755859375	50.01212310791017	1169.923950195313	-991.086608886719	24.42528152465821	1096.51123046875	-950.0952148437502	nan	nan	nan	266.8782653808594	1182.588623046875	-848.1931152343752	264.8593139648438	1196.87353515625	-739.2565307617189	-266.8545532226563	1256.88671875	-639.6428833007814	-152.3379516601563	1166.735107421875	-516.3439941406251	-113.0350189208985	1182.961059570313	-541.0737304687501	-86.39270019531251	1148.673828125	-498.7571716308595	-15.34101390838623	1137.700561523438	-493.0823974609376	-12.0975399017334	1065.121337890625	-524.1730957031251	188.8212585449219	1170.988647460938	-676.0305175781251	216.9880828857422	1170.778442382813	-605.9362182617189	262.8896789550782	1210.149780273438	-705.4706420898439	-370.5842590332032	807.417419433594	-937.1596679687502	-371.4463500976563	813.9101562500002	-686.5456542968751	-507.6029052734376	906.713562011719	-815.8167114257815	-519.2625122070314	877.9093017578127	-844.2105102539065	-524.6855468750001	879.8787841796877	-786.1977539062502	-356.5337219238282	606.2678222656251	-1027.7744140625	-298.1633300781251	544.9852905273439	-1032.410888671875	-261.2693176269532	559.7828369140626	-1002.477722167969	-305.1298828125001	484.6160583496095	-1039.741821289063	-288.8374328613282	397.4862670898439	-1040.279541015625	-287.7492675781251	364.5501403808594	-905.936218261719	-365.9166870117188	294.7515563964844	-996.6196289062502	-416.3096618652345	335.6228637695313	-1054.47705078125	-414.1196899414064	299.1369628906251	-1031.339111328125	-493.348358154297	289.8263854980469	-1003.859130859375	-642.9973754882814	328.0697021484376	-1043.227294921875	-629.1444702148439	324.1640625000001	-955.0155029296877	-670.8999633789064	394.4066772460939	-1017.157836914063	-712.2189941406251	211.6144561767579	-925.3103637695315	-711.8980712890626	190.3173980712891	-970.2770996093752	-732.6505737304689	213.6917419433594	-1029.806518554688	-377.6946105957032	645.8994750976564	-624.3209838867189	-313.2164611816407	630.3510131835939	-627.9576416015626	-292.2449035644532	655.4045410156251	-637.7093505859376	-281.9284667968751	552.6199951171876	-635.9053955078126	-209.7161560058594	431.4548339843751	-679.5444335937501	-183.13671875	449.8309631347657	-799.6343383789065	-200.193832397461	302.4758605957032	-772.2567138671877	-271.9828491210938	239.3522186279297	-720.2640991210939	-243.6167907714844	226.4039154052735	-758.0609130859376	-276.5576782226563	201.3800811767579	-798.9309082031252	-387.4465637207032	113.5340042114258	-767.6967163085939	-355.5504760742188	141.354721069336	-849.1560058593752	-447.903533935547	98.56377410888675	-826.1185302734377	-246.9351959228516	54.3571243286133	-836.844421386719	-244.9140167236329	56.34802627563478	-794.263122558594	-282.9362182617188	36.43359756469727	-742.1532592773439	-266.6768798828126	1428.574096679688	-673.6987304687501	
